<svg width="78" height="78" viewBox="0 0 78 78" fill="none" xmlns="http://www.w3.org/2000/svg">
<mask id="mask0_9_30" style="mask-type:luminance" maskUnits="userSpaceOnUse" x="0" y="0" width="78" height="78">
<path d="M77.5 0H0V77.5H77.5V0Z" fill="white"/>
</mask>
<g mask="url(#mask0_9_30)">
<path d="M77.5 38.7501C77.4998 49.0271 73.4171 58.8832 66.1501 66.1502C58.8831 73.4172 49.0271 77.4998 38.75 77.5001C38.22 77.5001 37.7 77.4901 37.17 77.4701C34.3393 77.3545 31.5296 76.932 28.79 76.2101C29.32 75.9401 29.84 75.6701 30.36 75.3801C30.37 75.3801 30.38 75.3701 30.4 75.3601L30.41 75.3501C30.96 75.0501 31.5 74.7501 32.03 74.4401C32.16 74.3601 32.29 74.2901 32.42 74.2201C32.92 73.9201 33.42 73.6201 33.91 73.3001C34.0549 73.2216 34.1951 73.1348 34.33 73.0401C34.71 72.8101 35.09 72.5601 35.46 72.3101C35.72 72.1401 35.99 71.9601 36.24 71.7901C36.62 71.5301 36.99 71.2701 37.36 71.0001C37.61 70.8301 37.84 70.6601 38.08 70.4701C38.4 70.2501 38.71 70.0101 39.02 69.7701C39.3 69.5701 39.57 69.3601 39.84 69.1401C40.22 68.8501 40.59 68.5501 40.96 68.2301C41.12 68.1101 41.28 67.9801 41.44 67.8401C41.84 67.5101 42.23 67.1701 42.62 66.8201C42.83 66.6401 43.04 66.4601 43.25 66.2601C43.48 66.0601 43.7 65.8601 43.92 65.6501C44.34 65.2701 44.75 64.8701 45.16 64.4701C45.2149 64.4252 45.2652 64.375 45.31 64.3201C45.71 63.9401 46.1 63.5401 46.48 63.1401C46.75 62.8801 47 62.6101 47.24 62.3401C47.53 62.0501 47.8 61.7501 48.07 61.4501C48.23 61.2801 48.38 61.1101 48.52 60.9401C48.88 60.5401 49.23 60.1301 49.58 59.7201C49.76 59.5101 49.94 59.2901 50.11 59.0701C50.37 58.7701 50.62 58.4701 50.85 58.1601C51.09 57.8701 51.32 57.5701 51.54 57.2701C51.75 57.0101 51.95 56.7401 52.14 56.4801C52.4 56.1401 52.65 55.8001 52.89 55.4501C53.13 55.1001 53.39 54.7501 53.63 54.3901C53.7491 54.2331 53.8593 54.0695 53.96 53.9001C54.3 53.4001 54.63 52.8901 54.95 52.3801C55.36 51.7501 55.75 51.1101 56.12 50.4601C56.29 50.1801 56.45 49.9001 56.61 49.6201C57.9068 47.333 59.0624 44.9685 60.07 42.5401C60.22 42.2001 60.36 41.8601 60.49 41.5101C60.65 41.1401 60.79 40.7601 60.93 40.3801C61.05 40.0701 61.17 39.7501 61.28 39.4301C61.41 39.0801 61.53 38.7201 61.65 38.3701C62.09 37.0901 62.49 35.8001 62.84 34.4901C62.93 34.1601 63.02 33.8401 63.1 33.5101C63.16 33.3001 63.21 33.1001 63.26 32.8901L63.5 31.8701C63.82 30.4801 64.09 29.0801 64.32 27.6601L64.47 26.7001C64.49 26.5501 64.51 26.4101 64.53 26.2601C64.59 25.8801 64.64 25.5001 64.68 25.1201C64.75 24.5501 64.82 23.9801 64.87 23.4101C64.89 23.2601 64.9 23.1101 64.91 22.9601C64.95 22.5701 64.98 22.1701 65.01 21.7801C65.04 21.3901 65.06 20.9801 65.08 20.5801C65.1 20.3001 65.11 20.0201 65.12 19.7301C65.16 18.8101 65.18 17.8901 65.18 16.9701C65.18 16.5001 65.18 16.0401 65.16 15.5801C65.16 15.3401 65.16 15.1101 65.15 14.8701C65.12 14.0401 65.08 13.2201 65.02 12.4001V12.3701C65.01 12.1701 65 11.9701 64.98 11.7701C64.94 11.2201 64.89 10.6801 64.84 10.1301C64.8403 10.1129 64.8369 10.0958 64.83 10.0801C66.1773 11.3072 67.4371 12.6271 68.6 14.0301L68.63 14.0601C68.6355 14.0655 68.639 14.0725 68.64 14.0801C74.3806 21.0182 77.5148 29.745 77.5 38.7501Z" fill="url(#paint0_linear_9_30)"/>
<path d="M65.1797 16.97C65.1851 28.9316 61.9566 40.6722 55.8358 50.9491C49.7151 61.2261 40.9298 69.6571 30.4098 75.35C30.3968 75.3652 30.3792 75.3758 30.3597 75.38L30.3498 75.39C29.8298 75.67 29.3098 75.94 28.7898 76.21C25.5263 75.3499 22.392 74.0585 19.4698 72.37C17.3558 71.1524 15.3604 69.7395 13.5098 68.15C13.8598 67.78 14.1998 67.41 14.5398 67.03L14.5497 67.02C14.5497 67.01 14.5598 67 14.5698 66.99H14.5797C25.5224 54.8282 31.5654 39.0401 31.5398 22.68C31.5414 15.6326 30.4276 8.62927 28.2397 1.93003H28.2298C28.2298 1.91003 28.2198 1.89003 28.2198 1.87003H28.2097C28.204 1.85394 28.2006 1.83708 28.1998 1.82001C27.9998 1.21001 27.7898 0.600037 27.5698 3.70953e-05H38.7498C48.3966 -0.0133225 57.6995 3.58227 64.8297 10.08C64.9097 10.84 64.9697 11.6 65.0197 12.37C65.1297 13.89 65.1797 15.42 65.1797 16.97Z" fill="url(#paint1_linear_9_30)"/>
<path d="M31.54 22.68C31.54 23.35 31.53 24.02 31.51 24.68C31.5 25.11 31.48 25.53 31.46 25.96C31.38 27.68 31.23 29.39 31.01 31.09C30.96 31.53 30.9 31.96 30.83 32.39C30.76 32.92 30.67 33.44 30.58 33.97C30.5 34.47 30.41 34.96 30.31 35.46C30.29 35.58 30.26 35.7 30.24 35.82C30.16 36.23 30.07 36.65 29.98 37.06C29.5103 39.1912 28.9329 41.2972 28.25 43.37C28.12 43.78 27.98 44.18 27.84 44.57C27.8278 44.6181 27.8111 44.665 27.79 44.71C27.65 45.12 27.51 45.51 27.36 45.91C27.32 46.03 27.27 46.16 27.22 46.29C27.06 46.72 26.89 47.14 26.72 47.56C26.53 48.04 26.33 48.52 26.12 48.99C25.91 49.48 25.69 49.97 25.47 50.46C25.26 50.91 25.04 51.36 24.83 51.8C24.6 52.27 24.37 52.73 24.13 53.18C23.89 53.63 23.65 54.09 23.4 54.54C23.15 54.99 22.9 55.44 22.65 55.88C22.4 56.32 22.13 56.77 21.86 57.21C21.59 57.65 21.32 58.08 21.04 58.51C20.49 59.37 19.92 60.22 19.33 61.05C18.74 61.88 18.12 62.7 17.5 63.51C16.56 64.7 15.5867 65.86 14.58 66.99H14.57C14.56 67 14.56 67 14.56 67.01C14.56 67.0126 14.559 67.0152 14.5571 67.0171C14.5552 67.0189 14.5527 67.02 14.55 67.02C14.21 67.4 13.86 67.78 13.51 68.15C11.9344 66.796 10.4697 65.3179 9.13003 63.73C9.11987 63.711 9.1063 63.6941 9.09003 63.68C3.20913 56.7053 -0.0112784 47.8731 2.96791e-05 38.75V0H27.57C27.79 0.6 28 1.2 28.19 1.81L28.2 1.81998C28.2009 1.83704 28.2043 1.85391 28.21 1.87H28.22V1.89999C28.2194 1.90542 28.2199 1.91092 28.2216 1.91611C28.2234 1.92129 28.2263 1.92604 28.23 1.92999H28.24C28.2489 1.96813 28.2623 2.00505 28.28 2.03998L28.4 2.42999C28.74 3.48999 29.05 4.55999 29.33 5.64999C29.53 6.37999 29.71 7.12997 29.88 7.87997C30.19 9.23997 30.46 10.63 30.69 12.04C30.74 12.38 30.8 12.71 30.84 13.05C30.96 13.88 31.07 14.71 31.16 15.55C31.2 15.86 31.23 16.18 31.25 16.49C31.31 17.07 31.35 17.66 31.39 18.24C31.49 19.71 31.54 21.19 31.54 22.68Z" fill="url(#paint2_linear_9_30)"/>
<g style="mix-blend-mode:multiply" opacity="0.15">
<path d="M19.4698 72.37C17.3558 71.1523 15.3604 69.7395 13.5098 68.15C21.9205 59.1982 27.6867 48.0913 30.1685 36.0615C32.6504 24.0317 31.7509 11.5496 27.5698 0C27.5698 0 44.9898 27.19 19.4698 72.37Z" fill="black"/>
</g>
<g style="mix-blend-mode:multiply" opacity="0.15">
<path d="M37.17 77.4701C34.3393 77.3545 31.5296 76.932 28.79 76.2101C39.7379 70.6633 48.9342 62.1908 55.358 51.7334C61.7818 41.276 65.1816 29.2429 65.18 16.9701C65.1797 14.669 65.0628 12.3694 64.83 10.0801C64.83 10.0801 75.216 47.7401 37.17 77.4701Z" fill="black"/>
</g>
<g style="mix-blend-mode:multiply" opacity="0.25">
<path d="M65.5004 21.6559C65.4404 22.4759 65.3804 23.336 65.3204 24.236C65.2404 25.126 65.2404 26.0859 65.0704 27.0359C64.9304 27.9959 64.7804 28.996 64.6304 30.016C64.5104 31.046 64.2204 32.0659 64.0004 33.1259C63.7906 34.2168 63.5201 35.2952 63.1904 36.356C62.8604 37.436 62.5304 38.526 62.1904 39.646C61.7904 40.736 61.3603 41.8259 60.9203 42.9359C60.5203 44.0559 59.9604 45.116 59.4604 46.206L58.6904 47.836C58.4204 48.376 58.1104 48.896 57.8204 49.426C57.2104 50.456 56.6704 51.5459 55.9904 52.5359C55.3304 53.5359 54.6704 54.536 54.0104 55.526C52.6531 57.4078 51.1977 59.217 49.6504 60.946C48.2089 62.5648 46.687 64.11 45.0904 65.576C44.3004 66.246 43.5304 66.896 42.7904 67.526C42.4204 67.836 42.0504 68.1359 41.6904 68.4359C41.3204 68.7159 40.9404 68.986 40.5804 69.246C39.8504 69.776 39.1604 70.276 38.4904 70.756C37.8204 71.236 37.1404 71.6059 36.5304 72.006C35.2804 72.756 34.2204 73.4459 33.2704 73.9059C31.5404 74.8059 30.4904 75.3159 30.3604 75.3759C30.3799 75.3717 30.3974 75.3612 30.4104 75.3459C40.9304 69.6531 49.7157 61.222 55.8364 50.9451C61.9572 40.6681 65.1857 28.9275 65.1804 16.9659C65.1804 15.4159 65.1304 13.886 65.0204 12.366C65.0504 12.616 65.1704 13.756 65.3304 15.576C65.3604 16.106 65.4404 16.6459 65.4404 17.3159C65.4504 17.9359 65.4604 18.6159 65.4704 19.3459C65.4804 20.0759 65.4904 20.8399 65.5004 21.6559Z" fill="black"/>
</g>
<g style="mix-blend-mode:multiply" opacity="0.25">
<path d="M14.5698 66.99H14.5798C14.5698 67.01 14.5598 67.01 14.5498 67.02C14.5498 67.01 14.5598 67 14.5698 66.99Z" fill="black"/>
</g>
<g style="mix-blend-mode:multiply" opacity="0.25">
<path d="M28.2163 1.87009C28.2214 1.89058 28.2281 1.91064 28.2363 1.93008H28.2263C28.2163 1.91008 28.2163 1.89009 28.2063 1.87009C28.2005 1.854 28.1972 1.83713 28.1963 1.82007C28.204 1.8363 28.2107 1.85301 28.2163 1.87009Z" fill="black"/>
</g>
<g style="mix-blend-mode:multiply" opacity="0.25">
<path d="M32.4001 23.556C32.4176 25.6899 32.3174 27.8231 32.1001 29.946C31.8827 32.135 31.5523 34.3112 31.1101 36.466C30.8801 37.556 30.6401 38.636 30.3401 39.696L29.9101 41.286C29.7401 41.806 29.5801 42.326 29.4101 42.846C29.2401 43.366 29.0801 43.886 28.9101 44.396C28.7201 44.896 28.5301 45.406 28.3401 45.896C27.9701 46.906 27.5501 47.866 27.1301 48.816C26.7301 49.776 26.2801 50.686 25.8301 51.576C25.3801 52.466 24.9101 53.326 24.4401 54.146C23.9901 54.976 23.5201 55.766 23.0301 56.516C22.5501 57.266 22.0901 57.996 21.6101 58.666C21.1301 59.336 20.6901 59.996 20.2301 60.586C19.7701 61.176 19.3201 61.736 18.9001 62.256C18.0501 63.296 17.2601 64.156 16.6401 64.886C15.4801 66.096 14.7401 66.826 14.5801 66.986C25.5227 54.8242 31.5657 39.036 31.5401 22.676C31.5418 15.6286 30.428 8.62526 28.2401 1.92603C28.2901 2.04603 28.3701 2.25603 28.4901 2.55603C28.6801 3.02603 28.9601 3.72602 29.2601 4.63602C30.1189 7.14933 30.8038 9.71872 31.3101 12.326C31.6581 14.0719 31.9184 15.8341 32.0901 17.606C32.3078 19.5817 32.4113 21.5684 32.4001 23.556Z" fill="black"/>
</g>
<g style="mix-blend-mode:screen" opacity="0.4">
<path d="M65.1801 16.9701C65.1855 28.9317 61.957 40.6723 55.8362 50.9492C49.7155 61.2262 40.9302 69.6572 30.4102 75.3501C30.6402 75.1901 31.5802 74.5501 33.0702 73.5701C33.9602 73.0401 34.9502 72.2501 36.1002 71.3901C37.2802 70.5601 38.5101 69.4901 39.8601 68.3601C40.2001 68.0701 40.5501 67.7801 40.9001 67.4901C41.2301 67.1701 41.5702 66.8501 41.9102 66.5201C42.6102 65.8701 43.3202 65.1901 44.0602 64.5001C45.4201 63.0101 46.9401 61.5201 48.3102 59.7901C49.7801 58.1501 51.0501 56.2701 52.4301 54.4201C53.0601 53.4501 53.6902 52.4801 54.3202 51.5001C54.9702 50.5301 55.4802 49.4701 56.0702 48.4601C56.3602 47.9501 56.6701 47.4501 56.9301 46.9301L57.6902 45.3501C58.1902 44.3001 58.7501 43.2801 59.1501 42.1901C59.5801 41.1301 60.0102 40.0701 60.4402 39.0201C60.8002 37.9501 61.1602 36.8901 61.5102 35.8501C61.9002 34.8201 62.1102 33.7501 62.4102 32.7401C62.6802 31.7101 63.0101 30.7301 63.1701 29.7301C63.5601 27.7501 63.9901 25.8801 64.1801 24.1301C64.3101 23.2601 64.4302 22.4201 64.5402 21.6201C64.6102 20.8101 64.6702 20.0401 64.7302 19.3201C64.7902 18.6001 64.8401 17.9201 64.8901 17.3001C64.9501 16.7101 64.9202 16.1101 64.9402 15.5901C64.9702 13.7601 65.0101 12.6201 65.0201 12.3701C65.1301 13.8901 65.1801 15.4201 65.1801 16.9701Z" fill="white"/>
</g>
<g style="mix-blend-mode:screen" opacity="0.4">
<path d="M31.5398 22.6801C31.5655 39.0401 25.5224 54.8282 14.5798 66.9901C14.5698 67.0101 14.5598 67.0101 14.5498 67.0201C14.5498 67.0101 14.5598 67.0001 14.5698 66.9901C14.7098 66.8001 15.3298 65.9601 16.3498 64.6301C16.8898 63.8501 17.5798 62.9301 18.2998 61.8201C19.0198 60.7101 19.8298 59.4501 20.6398 58.0501C21.0698 57.3601 21.4698 56.6201 21.8798 55.8501C22.2898 55.0801 22.7298 54.2901 23.1298 53.4501C23.5498 52.6201 23.9698 51.7701 24.3498 50.8701C24.7298 49.9701 25.1598 49.0801 25.5098 48.1401C25.8898 47.2001 26.2698 46.2501 26.5898 45.2601C26.9398 44.2901 27.2698 43.2901 27.5698 42.2801C27.7298 41.7701 27.8798 41.2601 28.0398 40.7501L28.4398 39.2001C28.7198 38.1701 28.9398 37.1201 29.1498 36.0701C29.6001 33.9789 29.9439 31.8662 30.1798 29.7401C30.4098 27.6401 30.5898 25.5601 30.6398 23.5401C30.8365 17.2279 30.2453 10.9159 28.8798 4.75009C28.5498 3.24009 28.3098 2.25008 28.2298 1.93008C28.2198 1.91008 28.2198 1.89009 28.2098 1.87009C28.2041 1.854 28.2007 1.83713 28.1998 1.82007C28.2075 1.8363 28.2142 1.85301 28.2198 1.87009C28.2249 1.89058 28.2316 1.91064 28.2398 1.93008C30.4277 8.62932 31.5415 15.6326 31.5398 22.6801Z" fill="white"/>
</g>
<g style="mix-blend-mode:multiply" opacity="0.25">
<path d="M77.5 38.7501C77.4997 49.0271 73.4171 58.8832 66.1501 66.1502C58.8831 73.4172 49.0271 77.4998 38.75 77.5001C38.75 77.5001 39.09 77.4701 39.73 77.4101C40.38 77.3701 41.31 77.2301 42.49 77.0701C43.67 76.8801 45.09 76.6001 46.69 76.2001C48.4661 75.7156 50.2123 75.1279 51.92 74.4401C53.9216 73.6072 55.8543 72.6174 57.7 71.4801C59.7376 70.2047 61.6614 68.756 63.45 67.1501C65.3509 65.4299 67.0821 63.5312 68.62 61.4801C70.216 59.3762 71.5806 57.1064 72.69 54.7101C73.8235 52.3216 74.7049 49.8214 75.32 47.2501C75.9144 44.7596 76.2693 42.2181 76.38 39.6601C76.4769 37.2547 76.3632 34.8456 76.04 32.4601C75.7415 30.3155 75.2699 28.1986 74.63 26.1301C74.0821 24.3691 73.4207 22.6455 72.65 20.9701C71.94 19.4801 71.26 18.2001 70.65 17.1801C70.04 16.1601 69.53 15.3601 69.16 14.8401C68.88 14.4401 68.71 14.1901 68.64 14.0801C74.3806 21.0182 77.5147 29.745 77.5 38.7501Z" fill="black"/>
</g>
<g style="mix-blend-mode:screen" opacity="0.4">
<path d="M6.25003 0.869995L1.05002 1L1.17001 8.23999C1.22001 10.98 1.21004 13.73 1.23004 16.48C1.25004 19.23 1.25004 21.97 1.23004 24.71C1.21004 27.45 1.22001 30.2 1.17001 32.95L1.10004 37.07L1.08002 39.1C1.09002 39.79 1.07002 40.49 1.11002 41.14C1.15261 42.4721 1.26946 43.8009 1.46002 45.12C1.65002 46.45 1.92004 47.77 2.23004 49.08C2.54671 50.3867 2.93391 51.6752 3.39001 52.94C3.84001 54.22 4.37003 55.47 4.94003 56.7C5.54003 57.91 6.15002 59.13 6.87002 60.3C7.55002 61.45 8.31003 62.58 9.09003 63.68C3.20913 56.7053 -0.0112784 47.8731 2.96791e-05 38.75V0H25C20.83 0.3 16.67 0.479994 12.5 0.649994L6.25003 0.869995Z" fill="white"/>
</g>
</g>
<defs>
<linearGradient id="paint0_linear_9_30" x1="71.0704" y1="22.0134" x2="35.509" y2="63.1537" gradientUnits="userSpaceOnUse">
<stop stop-color="#333333"/>
<stop offset="1" stop-color="#030303"/>
</linearGradient>
<linearGradient id="paint1_linear_9_30" x1="39.3448" y1="4.19155" x2="39.3448" y2="70.037" gradientUnits="userSpaceOnUse">
<stop stop-color="#333333"/>
<stop offset="1"/>
</linearGradient>
<linearGradient id="paint2_linear_9_30" x1="15.77" y1="-0.1363" x2="15.77" y2="70.876" gradientUnits="userSpaceOnUse">
<stop stop-color="#333333"/>
<stop offset="1"/>
</linearGradient>
</defs>
</svg>
