<svg xmlns="http://www.w3.org/2000/svg" width="272.922" height="85.707" viewBox="0 0 272.922 85.707">
  <path id="ExploreOur" d="M261.858,86.4c-8.512,0-10.8-6.812-10.8-15.143s2.284-15.1,10.8-15.1,10.754,6.72,10.754,15.1S270.373,86.4,261.858,86.4Zm0-25.4c-4.347,0-5.554,4.614-5.554,10.261s1.21,10.305,5.554,10.305,5.557-4.7,5.557-10.305S266.2,61,261.858,61Zm-44.72,75.982L228.383,123.4c1.478-1.793,2.42-3.586,2.42-4.748,0-2.331-1.748-3.9-4.391-3.9a4.542,4.542,0,0,0-4.793,4.347l-4.7-.9c.672-4.929,4.121-8.289,9.678-8.289s9.455,3.538,9.455,8.827c0,2.554-1.389,5.286-3.271,7.483l-7.3,8.512h10.977v4.885H217.141v-2.643Zm-.887-53.76L227.5,69.645c1.478-1.793,2.42-3.583,2.42-4.748,0-2.331-1.748-3.9-4.391-3.9a4.542,4.542,0,0,0-4.793,4.347l-4.7-.9c.672-4.929,4.121-8.289,9.678-8.289s9.452,3.538,9.452,8.825c0,2.554-1.389,5.286-3.271,7.481l-7.3,8.512h10.977v4.885H216.251V83.221ZM143.367,126.9v12.725h-5.42V108.758h5.42V121.8l9.274-13.038h6.541l-11.111,15.369,13.261,15.5h-7.124L143.364,126.9Zm10.31-41.037L142.834,73.139V85.864h-5.42V55h5.42V68.034L152.108,55h6.541L147.538,70.364l13.261,15.5h-7.124Zm-37.4-15.413A15.684,15.684,0,1,1,100.6,54.458,15.788,15.788,0,0,1,116.281,70.451ZM100.556,59.563c-5.869,0-10.127,4.974-10.127,10.888s4.255,10.843,10.127,10.843,10.261-4.929,10.261-10.843S106.469,59.563,100.556,59.563Zm-45.562,80.6a15.975,15.975,0,1,1,15.681-15.949A15.756,15.756,0,0,1,54.993,140.165Zm-.045-26.837c-5.869,0-10.124,4.974-10.124,10.888s4.255,10.843,10.124,10.843,10.261-4.929,10.261-10.843-4.347-10.888-10.261-10.888ZM65.663,70.451A15.684,15.684,0,1,1,49.982,54.458,15.788,15.788,0,0,1,65.663,70.451ZM49.938,59.563c-5.869,0-10.124,4.974-10.124,10.888s4.255,10.843,10.124,10.843S60.2,76.365,60.2,70.451,55.852,59.563,49.938,59.563Zm-27.49,71.281c0,4.347-3.092,8.783-9.5,8.783H0V108.758H12.006c5.376,0,8.783,3.226,8.783,7.93,0,2.42-.9,5.331-4.032,6.452,3.764.761,5.691,4.3,5.691,7.707Zm-10.662-17.2H5.468v7.573h6.318c2.286,0,3.541-1.522,3.541-3.764s-1.165-3.809-3.541-3.809Zm.449,12.187H5.47v8.917H12.1c3.181,0,4.838-2.105,4.838-4.436A4.356,4.356,0,0,0,12.234,125.828ZM0,55H5.465V80.982H17.474v4.885H0V55Zm103.372,53.222a15.975,15.975,0,1,1-15.681,16A15.825,15.825,0,0,1,103.372,108.217Zm-.045,26.837c5.914,0,10.261-4.929,10.261-10.843s-4.347-10.888-10.261-10.888S93.2,118.3,93.2,124.211s4.255,10.843,10.127,10.843Zm158.843.36c3.271,0,5.51-1.927,5.51-4.525,0-2.777-2.286-4.7-5.465-4.7H259.3v-4.076h2.061c3.137,0,5.063-1.748,4.974-4.032-.089-2.016-1.7-3.36-4.076-3.36a6.4,6.4,0,0,0-5.019,2.554l-3.092-3.181a10.614,10.614,0,0,1,8.557-4.166c5.153,0,8.917,3.092,8.872,7.974a6.53,6.53,0,0,1-3.809,5.958,7.4,7.4,0,0,1,5.153,7.213c0,5.376-4.347,9.1-10.528,9.1a10.525,10.525,0,0,1-9.589-5.51l3.809-2.732a6.52,6.52,0,0,0,5.557,3.494Z" transform="translate(0 -54.458)" fill="#fff" fill-rule="evenodd"/>
</svg>